PathFileType        4      (X/Y/Z)      C:\Users\pc\Desktop\IMUTRC\Sujet_03\Sujet_03_Tpose.trc         
DataRate	CameraRate	NumFrames	NumMarkers	Units	OrigDataRate	OrigDataStartFrame	OrigNumFrames
60.0	60.0	4	64	mm	60.0	47	123
Frame#	Time	pHipOrigin			pRightASI			pLeftASI			pRightCSI			pLeftCSI			pRightIschialTub			pLeftIschialTub			pSacrum			pL5SpinalProcess			pL3SpinalProcess			pT12SpinalProcess			pIJ			pT4SpinalProcess			pT8SpinalProcess			pPX			pC7SpinalProcess			pTopOfHead			pRightAuricularis			pLeftAuricularis			pBackOfHead			pRightAcromion			pLeftAcromion			pRightArmLatEpicondyle			pRightArmMedEpicondyle			pLeftArmLatEpicondyle			pLeftArmMedEpicondyle			pRightUlnarStyloid			pRightRadialStyloid			pRightOlecranon			pLeftUlnarStyloid			pLeftRadialStyloid			pLeftOlecranon			pRightTopOfHand			pRightPinky			pRightBallHand			pLeftTopOfHand			pLeftPinky			pLeftBallHand			pRightGreaterTrochanter			pRightKneeLatEpicondyle			pRightKneeMedEpicondyle			pRightPatella			pLeftGreaterTrochanter			pLeftKneeLatEpicondyle			pLeftKneeMedEpicondyle			pLeftPatella			pRightTibialTub			pRightLatMalleolus			pRightMedMalleolus			pLeftTibialTub			pLeftLatMalleolus			pLeftMedMalleolus			pRightHeelFoot			pRightFirstMetatarsal			pRightFifthMetatarsal			pRightPivotFoot			pRightHeelCenter			pRightToe			pLeftHeelFoot			pLeftFirstMetatarsal			pLeftFifthMetatarsal			pLeftPivotFoot			pLeftHeelCenter			pLeftToe			
		X1	Y1	Z1	X2	Y2	Z2	X3	Y3	Z3	X4	Y4	Z4	X5	Y5	Z5	X6	Y6	Z6	X7	Y7	Z7	X8	Y8	Z8	X9	Y9	Z9	X10	Y10	Z10	X11	Y11	Z11	X12	Y12	Z12	X13	Y13	Z13	X14	Y14	Z14	X15	Y15	Z15	X16	Y16	Z16	X17	Y17	Z17	X18	Y18	Z18	X19	Y19	Z19	X20	Y20	Z20	X21	Y21	Z21	X22	Y22	Z22	X23	Y23	Z23	X24	Y24	Z24	X25	Y25	Z25	X26	Y26	Z26	X27	Y27	Z27	X28	Y28	Z28	X29	Y29	Z29	X30	Y30	Z30	X31	Y31	Z31	X32	Y32	Z32	X33	Y33	Z33	X34	Y34	Z34	X35	Y35	Z35	X36	Y36	Z36	X37	Y37	Z37	X38	Y38	Z38	X39	Y39	Z39	X40	Y40	Z40	X41	Y41	Z41	X42	Y42	Z42	X43	Y43	Z43	X44	Y44	Z44	X45	Y45	Z45	X46	Y46	Z46	X47	Y47	Z47	X48	Y48	Z48	X49	Y49	Z49	X50	Y50	Z50	X51	Y51	Z51	X52	Y52	Z52	X53	Y53	Z53	X54	Y54	Z54	X55	Y55	Z55	X56	Y56	Z56	X57	Y57	Z57	X58	Y58	Z58	X59	Y59	Z59	X60	Y60	Z60	X61	Y61	Z61	X62	Y62	Z62	X63	Y63	Z63	X64	Y64	Z64	
47	0.767	-384.35494	985.13162	-765.5575399999999	-302.68094	1083.77087	-634.3633199999999	-323.14243	1082.85383	-908.1001499999999	-347.10013	1153.29407	-655.2833299999999	-364.00808	1152.54897	-881.2193799999999	-438.74695	929.65062	-704.5169799999999	-447.17226	929.30673	-817.4850099999999	-451.29895	1009.14664	-760.6284399999998	-412.15275	1100.73614	-763.8953999999999	-396.27647	1216.05408	-764.3539199999999	-393.00951	1322.31624	-763.4941999999999	-219.05824	1535.81492	-772.0914599999999	-378.91	1523.32023	-761.2589099999999	-390.60228	1428.5784	-762.1186399999999	-229.71885	1405.82432	-773.6389699999999	-370.42737	1579.08781	-759.1955699999999	-280.78658	1833.91066	-763.4368799999999	-274.82582	1729.5399	-695.1173099999999	-305.77596	1735.38603	-835.9977799999999	-345.438	1737.39206	-753.2347999999998	-343.31734	1557.19345	-547.8175499999999	-382.06233	1579.25975	-969.5992299999999	-276.43064	1485.83617	-304.9735499999999	-219.11556	1476.78039	-322.5119599999999	-406.6505	1494.03223	-1223.16115	-346.46967	1487.38368	-1224.19282	-147.35707	1437.11835	-80.87157999999991	-179.68278	1475.51945	-61.441769999999906	-235.96619	1463.1394	-328.98856999999987	-388.88283	1438.8378	-1475.86334	-431.86914	1471.10619	-1478.78641	-356.8437	1475.74871	-1215.59556	-124.88956	1440.67189	135.89406000000008	-105.11586	1421.52865	39.77667000000009	-130.90765	1449.38378	-33.75857999999992	-363.83614	1464.40033	-1683.00005	-344.06243	1440.78652	-1587.85701	-376.90398	1456.94937	-1513.6913	-363.60688	951.6023	-602.0376099999999	-398.85565	541.28363	-630.52321	-413.92952	541.79946	-709.10219	-362.86178	541.51289	-680.84585	-402.00798	950.6852500000001	-929.4213599999999	-435.1361	541.28363	-888.09719	-424.24623	542.14335	-808.83043	-384.9854	540.71048	-851.87405	-350.99756	500.8191800000001	-683.36772	-435.59462	89.81273000000004	-635.28036	-448.20394	90.15662000000005	-700.96345	-372.14682	501.79354000000006	-853.42156	-459.8389	89.01032000000005	-871.36118	-450.61117	89.58347000000005	-805.16226	-477.66389	0.11463000000004038	-659.52464	-320.16204	6.361970000000045	-730.59534	-304.68697	7.85217000000004	-650.46886	-289.89968	8.024110000000043	-696.03435	-438.23111	2.6364900000000406	-667.20486	-207.99643	11.348390000000045	-711.96794	-492.62312	-0.11462999999994906	-831.69915	-320.16204	4.757150000000051	-820.40807	-333.63109	4.527890000000055	-900.93576	-303.88456	5.272990000000053	-863.39439	-452.96109	1.8914000000000513	-838.40501	-221.52279	7.508280000000053	-877.20732	
48	0.783	-384.29762	985.0743	-765.5575399999999	-302.509	1083.77087	-634.4206399999999	-323.08511	1082.85383	-908.1001499999999	-346.92819	1153.29407	-655.3406399999999	-363.95077	1152.54897	-881.2766899999999	-438.63232	929.65062	-704.5169799999999	-447.17226	929.30673	-817.4850099999999	-451.24164	1009.14664	-760.6284399999998	-412.09543	1100.73614	-763.8953999999999	-396.21916	1216.05408	-764.3539199999999	-392.89488	1322.31624	-763.4941999999999	-219.00093	1535.81492	-772.0914599999999	-378.79537	1523.32023	-761.2589099999999	-390.54496	1428.5784	-762.1186399999999	-229.60422	1405.82432	-773.6962799999999	-370.31274	1579.08781	-759.1955699999999	-280.72927	1833.91066	-763.4368799999999	-274.71118	1729.5399	-695.1173099999999	-305.71864	1735.38603	-835.9977799999999	-345.38068	1737.39206	-753.2347999999998	-343.14539	1557.19345	-547.8175499999999	-382.00502	1579.25975	-969.5992299999999	-276.25869	1485.83617	-304.9735499999999	-218.94361	1476.78039	-322.5692799999999	-406.70782	1494.03223	-1223.16115	-346.46967	1487.38368	-1224.19282	-147.18513	1437.06103	-80.87157999999991	-179.51083	1475.51945	-61.49907999999991	-235.79424	1463.1394	-329.0458799999999	-388.99746	1438.78049	-1475.86334	-431.98377	1471.04888	-1478.78641	-356.90101	1475.74871	-1215.65288	-124.60299	1440.67189	135.83674000000008	-104.8866	1421.52865	39.66204000000008	-130.67839	1449.38378	-33.815899999999914	-363.95077	1464.2857	-1683.00005	-344.11975	1440.67189	-1587.7997	-377.01861	1456.89205	-1513.63398	-363.49225	951.6023	-602.0949299999999	-398.79834	541.28363	-630.52321	-413.8722	541.79946	-709.10219	-362.86178	541.51289	-680.90317	-401.95067	950.6852500000001	-929.4213599999999	-435.1361	541.28363	-888.09719	-424.24623	542.14335	-808.83043	-384.9854	540.71048	-851.87405	-350.99756	500.8191800000001	-683.42503	-435.59462	89.81273000000004	-635.28036	-448.20394	90.21394000000004	-700.96345	-372.14682	501.79354000000006	-853.47888	-459.89621	89.01032000000005	-871.36118	-450.61117	89.58347000000005	-805.16226	-477.66389	0.11463000000004038	-659.52464	-320.16204	6.361970000000045	-730.59534	-304.68697	7.85217000000004	-650.46886	-289.89968	8.024110000000043	-696.03435	-438.23111	2.693810000000041	-667.20486	-207.99643	11.405700000000044	-711.96794	-492.62312	-0.11462999999994906	-831.69915	-320.16204	4.757150000000051	-820.40807	-333.63109	4.527890000000055	-900.93576	-303.88456	5.272990000000053	-863.39439	-452.96109	1.8914000000000513	-838.3477	-221.52279	7.508280000000053	-877.20732	
49	0.8	-384.24031	985.0743	-765.6148599999999	-302.39437	1083.71356	-634.4779499999999	-323.08511	1082.85383	-908.1574599999999	-346.81356	1153.29407	-655.3406399999999	-363.89345	1152.54897	-881.3340099999999	-438.575	929.65062	-704.5169799999999	-447.11495	929.30673	-817.4850099999999	-451.18432	1009.14664	-760.6284399999998	-411.9808	1100.73614	-763.9527199999999	-396.10453	1216.05408	-764.4112399999999	-392.83757	1322.31624	-763.5515099999999	-218.8863	1535.81492	-772.1487799999999	-378.73806	1523.32023	-761.2589099999999	-390.43033	1428.5784	-762.1186399999999	-229.5469	1405.82432	-773.6962799999999	-370.19811	1579.08781	-759.1955699999999	-280.67195	1833.91066	-763.3795699999998	-274.65387	1729.5399	-695.0599899999999	-305.66133	1735.38603	-835.9977799999999	-345.26605	1737.39206	-753.1774799999998	-343.03076	1557.19345	-547.8748599999999	-382.00502	1579.25975	-969.5992299999999	-276.08675	1485.83617	-304.9735499999999	-218.82898	1476.78039	-322.5692799999999	-406.70782	1494.08954	-1223.16115	-346.46967	1487.38368	-1224.19282	-146.95587	1437.06103	-80.92888999999991	-179.28157	1475.46214	-61.49907999999991	-235.6223	1463.1394	-329.0458799999999	-389.05477	1438.78049	-1475.80603	-432.04108	1471.04888	-1478.78641	-356.90101	1475.74871	-1215.65288	-124.31641	1440.67189	135.83674000000008	-104.60002	1421.52865	39.604720000000086	-130.44913	1449.32646	-33.873209999999915	-364.00808	1464.22838	-1683.00005	-344.23438	1440.61457	-1587.7997	-377.07592	1456.83474	-1513.63398	-363.37762	951.6023	-602.1522399999999	-398.74102	541.28363	-630.58053	-413.8722	541.79946	-709.10219	-362.86178	541.51289	-680.90317	-401.95067	950.6279400000001	-929.4786699999999	-435.1361	541.28363	-888.09719	-424.24623	542.14335	-808.88774	-384.9854	540.71048	-851.93137	-350.94024	500.8191800000001	-683.42503	-435.5373	89.81273000000004	-635.28036	-448.20394	90.21394000000004	-700.96345	-372.14682	501.79354000000006	-853.47888	-459.89621	89.01032000000005	-871.36118	-450.61117	89.58347000000005	-805.16226	-477.66389	0.11463000000004038	-659.52464	-320.16204	6.361970000000045	-730.59534	-304.68697	7.85217000000004	-650.46886	-289.89968	8.024110000000043	-696.03435	-438.23111	2.693810000000041	-667.20486	-207.99643	11.405700000000044	-711.96794	-492.62312	-0.11462999999994906	-831.69915	-320.16204	4.757150000000051	-820.40807	-333.63109	4.527890000000055	-900.93576	-303.88456	5.272990000000053	-863.39439	-452.96109	1.8914000000000513	-838.3477	-221.52279	7.508280000000053	-877.20732	
50	0.817	-384.18299	985.0743	-765.6721699999999	-302.27974	1083.71356	-634.5352699999999	-323.08511	1082.85383	-908.2720899999999	-346.69893	1153.29407	-655.3979599999999	-363.89345	1152.54897	-881.3340099999999	-438.46037	929.65062	-704.5169799999999	-447.05763	929.30673	-817.4850099999999	-451.12701	1009.14664	-760.6284399999998	-411.92349	1100.73614	-763.9527199999999	-396.04721	1216.05408	-764.4112399999999	-392.72294	1322.31624	-763.5515099999999	-218.77167	1535.81492	-772.1487799999999	-378.62343	1523.32023	-761.2589099999999	-390.37302	1428.5784	-762.1759499999998	-229.43227	1405.82432	-773.7535999999999	-370.1408	1579.08781	-759.1955699999999	-280.55732	1833.91066	-763.3795699999998	-274.53924	1729.48258	-695.0599899999999	-305.5467	1735.38603	-835.9404599999999	-345.20874	1737.39206	-753.1774799999998	-342.91613	1557.13613	-547.8748599999999	-382.00502	1579.31707	-969.5419199999999	-275.9148	1485.77885	-305.0308599999999	-218.65704	1476.78039	-322.6265899999999	-406.70782	1494.03223	-1223.10384	-346.46967	1487.38368	-1224.19282	-146.72661	1437.06103	-80.98620999999991	-179.10963	1475.40482	-61.556399999999904	-235.45035	1463.1394	-329.1031999999999	-389.11209	1438.72317	-1475.80603	-432.0984	1470.99156	-1478.7291	-356.90101	1475.74871	-1215.59556	-124.08715	1440.61457	135.77943000000008	-104.37076	1421.47133	39.604720000000086	-130.27718	1449.32646	-33.873209999999915	-364.0654	1464.17107	-1682.94273	-344.23438	1440.55725	-1587.7997	-377.13324	1456.83474	-1513.63398	-363.26299	951.6023	-602.1522399999999	-398.74102	541.28363	-630.58053	-413.8722	541.79946	-709.10219	-362.80446	541.51289	-680.96048	-401.95067	950.6279400000001	-929.4786699999999	-435.19341	541.28363	-888.09719	-424.24623	542.14335	-808.88774	-384.9854	540.65316	-851.93137	-350.94024	500.8191800000001	-683.42503	-435.5373	89.81273000000004	-635.28036	-448.20394	90.21394000000004	-700.96345	-372.14682	501.79354000000006	-853.53619	-459.89621	89.01032000000005	-871.36118	-450.55385	89.58347000000005	-805.16226	-477.66389	0.11463000000004038	-659.52464	-320.16204	6.361970000000045	-730.59534	-304.68697	7.85217000000004	-650.46886	-289.89968	8.024110000000043	-696.03435	-438.23111	2.693810000000041	-667.20486	-207.99643	11.405700000000044	-711.96794	-492.62312	-0.11462999999994906	-831.69915	-320.16204	4.757150000000051	-820.40807	-333.63109	4.470580000000055	-900.93576	-303.88456	5.272990000000053	-863.39439	-452.96109	1.8914000000000513	-838.3477	-221.52279	7.508280000000053	-877.20732	
